<?xml version="1.0" standalone="no"?>
<!DOCTYPE svg PUBLIC "-//W3C//DTD SVG 20010904//EN"
 "http://www.w3.org/TR/2001/REC-SVG-20010904/DTD/svg10.dtd">
<svg version="1.0" xmlns="http://www.w3.org/2000/svg"
 width="491.000000pt" height="154.000000pt" viewBox="0 0 491.000000 154.000000"
 preserveAspectRatio="xMidYMid meet">
<metadata>
Created by potrace 1.16, written by Peter Selinger 2001-2019
</metadata>
<g transform="translate(0.000000,154.000000) scale(0.100000,-0.100000)"
fill="#000000" stroke="none">
<path d="M210 780 l0 -700 715 0 715 0 0 700 0 700 -715 0 -715 0 0 -700z
m1370 5 l0 -635 -655 0 -655 0 0 635 0 635 655 0 655 0 0 -635z"/>
<path d="M420 785 l0 -506 138 3 137 3 5 105 5 106 54 62 c30 34 57 62 62 62
4 0 67 -76 140 -170 l132 -170 175 0 c138 0 172 3 165 13 -332 423 -414 531
-410 540 5 11 122 142 326 366 l83 91 -185 0 -185 0 -179 -197 -178 -198 -3
198 -2 197 -140 0 -140 0 0 -505z"/>
<path d="M2713 1110 c-22 -9 -43 -39 -43 -60 0 -22 49 -60 77 -60 89 0 100
105 13 124 -14 3 -35 1 -47 -4z"/>
<path d="M3994 1091 c-44 -27 -64 -59 -64 -103 0 -35 -1 -37 -37 -40 -36 -3
-38 -5 -41 -40 -3 -35 -2 -37 30 -40 l33 -3 5 -195 5 -195 64 -3 c35 -2 68 1
73 6 4 4 3 87 -3 186 -8 134 -8 181 1 190 6 6 39 11 73 11 l62 0 0 40 0 40
-63 3 c-66 3 -86 18 -62 47 16 19 50 19 78 -1 37 -26 54 -11 50 43 -2 39 -7
50 -28 60 -39 20 -139 16 -176 -6z"/>
<path d="M4370 1091 c-41 -22 -58 -51 -62 -101 -3 -33 -6 -35 -40 -38 -37 -3
-38 -4 -38 -42 0 -36 2 -39 33 -42 l32 -3 5 -195 5 -195 64 -3 c35 -2 68 1 72
5 4 4 3 83 -3 174 -6 91 -8 178 -4 192 6 27 8 27 74 25 l67 -3 0 40 0 40 -62
3 c-69 3 -94 20 -68 46 20 20 55 21 81 1 35 -27 44 -19 44 39 0 31 -5 58 -12
62 -6 4 -43 9 -82 11 -56 3 -78 -1 -106 -16z"/>
<path d="M2094 1066 c-3 -8 -6 -144 -7 -303 l-2 -288 75 0 c86 0 79 -13 65
127 -4 42 -5 88 -1 102 9 36 44 42 98 18 68 -31 106 -82 137 -187 l17 -60 71
-3 c88 -4 97 5 88 83 -15 117 -85 203 -187 229 -25 6 -46 15 -49 19 -2 4 22
19 54 32 91 37 131 81 147 164 14 76 9 82 -68 79 l-65 -3 -12 -40 c-30 -102
-84 -155 -164 -163 -66 -6 -76 11 -66 124 l7 84 -66 0 c-48 0 -68 -4 -72 -14z"/>
<path d="M3516 945 c-101 -36 -156 -119 -156 -236 0 -160 107 -258 269 -247
75 6 113 22 159 70 85 86 79 282 -10 365 -62 58 -176 79 -262 48z m166 -123
c75 -70 40 -237 -53 -256 -76 -15 -139 50 -139 144 0 126 110 190 192 112z"/>
<path d="M2692 933 c-3 -10 -7 -117 -7 -238 l0 -220 63 -3 62 -3 0 229 c0 164
-3 231 -12 240 -19 19 -97 15 -106 -5z"/>
<path d="M2860 923 c0 -70 133 -408 173 -442 10 -7 40 -11 84 -9 l68 3 42 80
c43 82 133 335 133 374 0 21 -4 22 -67 19 -76 -3 -65 13 -98 -136 -22 -95 -68
-207 -86 -207 -20 0 -76 147 -97 252 l-17 88 -67 3 -68 3 0 -28z"/>
</g>
</svg>
